HIERARCHY
ROOT mixamorig:Hips
{
	OFFSET -0.000008 104.274872 1.554316
	CHANNELS 6 Xposition Yposition Zposition Xrotation Yrotation Zrotation
	JOINT mixamorig:Spine
	{
		OFFSET -0.000005 10.181595 0.131519
		CHANNELS 6 Xposition Yposition Zposition Xrotation Yrotation Zrotation
		JOINT mixamorig:Spine1
		{
			OFFSET -0.000000 9.893959 -1.470707
			CHANNELS 6 Xposition Yposition Zposition Xrotation Yrotation Zrotation
			JOINT mixamorig:Spine2
			{
				OFFSET -0.000000 9.220757 -1.370641
				CHANNELS 6 Xposition Yposition Zposition Xrotation Yrotation Zrotation
				JOINT mixamorig:Neck
				{
					OFFSET 0.000001 16.740417 -2.049036
					CHANNELS 6 Xposition Yposition Zposition Xrotation Yrotation Zrotation
					JOINT mixamorig:Head
					{
						OFFSET 0.000000 9.617874 1.685006
						CHANNELS 6 Xposition Yposition Zposition Xrotation Yrotation Zrotation
						JOINT mixamorig:HeadTop_End
						{
							OFFSET 0.000002 22.037354 7.501101
							CHANNELS 6 Xposition Yposition Zposition Xrotation Yrotation Zrotation
							End Site
							{
								OFFSET 0.000168 2310.654297 -282.823242
							}
						}
					}
				}
				JOINT mixamorig:RightShoulder
				{
					OFFSET -4.569970 11.014908 -2.160885
					CHANNELS 6 Xposition Yposition Zposition Xrotation Yrotation Zrotation
					JOINT mixamorig:RightArm
					{
						OFFSET -10.592851 -0.524811 -2.232101
						CHANNELS 6 Xposition Yposition Zposition Xrotation Yrotation Zrotation
						JOINT mixamorig:RightForeArm
						{
							OFFSET -27.841511 0.000031 -0.000004
							CHANNELS 6 Xposition Yposition Zposition Xrotation Yrotation Zrotation
							JOINT mixamorig:RightHand
							{
								OFFSET -28.328831 -0.000015 0.000015
								CHANNELS 6 Xposition Yposition Zposition Xrotation Yrotation Zrotation
								JOINT mixamorig:RightHandThumb1
								{
									OFFSET -2.464806 -1.573990 2.681852
									CHANNELS 6 Xposition Yposition Zposition Xrotation Yrotation Zrotation
									JOINT mixamorig:RightHandThumb2
									{
										OFFSET -3.215179 -1.872803 1.924282
										CHANNELS 6 Xposition Yposition Zposition Xrotation Yrotation Zrotation
										JOINT mixamorig:RightHandThumb3
										{
											OFFSET -2.654831 -1.527969 1.512609
											CHANNELS 6 Xposition Yposition Zposition Xrotation Yrotation Zrotation
											JOINT mixamorig:RightHandThumb4
											{
												OFFSET -2.018814 -1.152008 1.108052
												CHANNELS 6 Xposition Yposition Zposition Xrotation Yrotation Zrotation
												End Site
												{
													OFFSET -188.809540 -114.533607 132.431396
												}
											}
										}
									}
								}
								JOINT mixamorig:RightHandIndex1
								{
									OFFSET -9.108284 -0.517868 2.259835
									CHANNELS 6 Xposition Yposition Zposition Xrotation Yrotation Zrotation
									JOINT mixamorig:RightHandIndex2
									{
										OFFSET -3.699989 0.000000 0.001215
										CHANNELS 6 Xposition Yposition Zposition Xrotation Yrotation Zrotation
										JOINT mixamorig:RightHandIndex3
										{
											OFFSET -2.850006 0.000031 -0.000522
											CHANNELS 6 Xposition Yposition Zposition Xrotation Yrotation Zrotation
											JOINT mixamorig:RightHandIndex4
											{
												OFFSET -2.772186 -0.000015 -0.000020
												CHANNELS 6 Xposition Yposition Zposition Xrotation Yrotation Zrotation
												End Site
												{
													OFFSET -277.218445 0.000000 -0.050231
												}
											}
										}
									}
								}
								JOINT mixamorig:RightHandMiddle1
								{
									OFFSET -9.532516 -0.000031 -0.000023
									CHANNELS 6 Xposition Yposition Zposition Xrotation Yrotation Zrotation
									JOINT mixamorig:RightHandMiddle2
									{
										OFFSET -3.700005 -0.000015 0.003713
										CHANNELS 6 Xposition Yposition Zposition Xrotation Yrotation Zrotation
										JOINT mixamorig:RightHandMiddle3
										{
											OFFSET -2.949974 0.000015 -0.002054
											CHANNELS 6 Xposition Yposition Zposition Xrotation Yrotation Zrotation
											JOINT mixamorig:RightHandMiddle4
											{
												OFFSET -2.946640 0.000000 -0.000156
												CHANNELS 6 Xposition Yposition Zposition Xrotation Yrotation Zrotation
												End Site
												{
													OFFSET -294.664337 0.000000 -0.113670
												}
											}
										}
									}
								}
								JOINT mixamorig:RightHandRing1
								{
									OFFSET -9.103600 -0.043076 -1.865134
									CHANNELS 6 Xposition Yposition Zposition Xrotation Yrotation Zrotation
									JOINT mixamorig:RightHandRing2
									{
										OFFSET -3.379288 0.000000 -0.001055
										CHANNELS 6 Xposition Yposition Zposition Xrotation Yrotation Zrotation
										JOINT mixamorig:RightHandRing3
										{
											OFFSET -2.889687 -0.000015 0.000379
											CHANNELS 6 Xposition Yposition Zposition Xrotation Yrotation Zrotation
											JOINT mixamorig:RightHandRing4
											{
												OFFSET -2.638809 -0.000015 0.000941
												CHANNELS 6 Xposition Yposition Zposition Xrotation Yrotation Zrotation
												End Site
												{
													OFFSET -263.880371 0.000000 0.516020
												}
											}
										}
									}
								}
								JOINT mixamorig:RightHandPinky1
								{
									OFFSET -8.076683 -0.486710 -3.806280
									CHANNELS 6 Xposition Yposition Zposition Xrotation Yrotation Zrotation
									JOINT mixamorig:RightHandPinky2
									{
										OFFSET -3.600014 -0.000015 -0.003747
										CHANNELS 6 Xposition Yposition Zposition Xrotation Yrotation Zrotation
										JOINT mixamorig:RightHandPinky3
										{
											OFFSET -2.099983 0.000000 -0.005739
											CHANNELS 6 Xposition Yposition Zposition Xrotation Yrotation Zrotation
											JOINT mixamorig:RightHandPinky4
											{
												OFFSET -2.115768 -0.000031 -0.003680
												CHANNELS 6 Xposition Yposition Zposition Xrotation Yrotation Zrotation
												End Site
												{
													OFFSET -211.577087 0.000000 -0.350686
												}
											}
										}
									}
								}
							}
						}
					}
				}
				JOINT mixamorig:LeftShoulder
				{
					OFFSET 4.570447 11.014725 -2.160855
					CHANNELS 6 Xposition Yposition Zposition Xrotation Yrotation Zrotation
					JOINT mixamorig:LeftArm
					{
						OFFSET 10.592371 -0.524597 -2.232119
						CHANNELS 6 Xposition Yposition Zposition Xrotation Yrotation Zrotation
						JOINT mixamorig:LeftForeArm
						{
							OFFSET 27.841532 -0.000031 0.000026
							CHANNELS 6 Xposition Yposition Zposition Xrotation Yrotation Zrotation
							JOINT mixamorig:LeftHand
							{
								OFFSET 28.328846 -0.000061 0.000022
								CHANNELS 6 Xposition Yposition Zposition Xrotation Yrotation Zrotation
								JOINT mixamorig:LeftHandThumb1
								{
									OFFSET 2.466141 -1.576172 2.681732
									CHANNELS 6 Xposition Yposition Zposition Xrotation Yrotation Zrotation
									JOINT mixamorig:LeftHandThumb2
									{
										OFFSET 3.217812 -1.872070 1.916482
										CHANNELS 6 Xposition Yposition Zposition Xrotation Yrotation Zrotation
										JOINT mixamorig:LeftHandThumb3
										{
											OFFSET 2.656029 -1.528778 1.514513
											CHANNELS 6 Xposition Yposition Zposition Xrotation Yrotation Zrotation
											JOINT mixamorig:LeftHandThumb4
											{
												OFFSET 2.020889 -1.154053 1.115139
												CHANNELS 6 Xposition Yposition Zposition Xrotation Yrotation Zrotation
												End Site
												{
													OFFSET 190.885437 -115.081749 130.048782
												}
											}
										}
									}
								}
								JOINT mixamorig:LeftHandIndex1
								{
									OFFSET 9.109314 -0.518021 2.259871
									CHANNELS 6 Xposition Yposition Zposition Xrotation Yrotation Zrotation
									JOINT mixamorig:LeftHandIndex2
									{
										OFFSET 3.699989 0.000000 -0.000322
										CHANNELS 6 Xposition Yposition Zposition Xrotation Yrotation Zrotation
										JOINT mixamorig:LeftHandIndex3
										{
											OFFSET 2.850006 0.000000 0.000352
											CHANNELS 6 Xposition Yposition Zposition Xrotation Yrotation Zrotation
											JOINT mixamorig:LeftHandIndex4
											{
												OFFSET 2.774864 -0.000031 -0.000027
												CHANNELS 6 Xposition Yposition Zposition Xrotation Yrotation Zrotation
												End Site
												{
													OFFSET 277.486267 0.000000 -0.009857
												}
											}
										}
									}
								}
								JOINT mixamorig:LeftHandMiddle1
								{
									OFFSET 9.533394 0.000061 0.000044
									CHANNELS 6 Xposition Yposition Zposition Xrotation Yrotation Zrotation
									JOINT mixamorig:LeftHandMiddle2
									{
										OFFSET 3.699989 -0.000015 -0.000231
										CHANNELS 6 Xposition Yposition Zposition Xrotation Yrotation Zrotation
										JOINT mixamorig:LeftHandMiddle3
										{
											OFFSET 2.949997 -0.000015 -0.000059
											CHANNELS 6 Xposition Yposition Zposition Xrotation Yrotation Zrotation
											JOINT mixamorig:LeftHandMiddle4
											{
												OFFSET 2.952896 0.000031 0.000063
												CHANNELS 6 Xposition Yposition Zposition Xrotation Yrotation Zrotation
												End Site
												{
													OFFSET 295.289337 0.000000 0.022810
												}
											}
										}
									}
								}
								JOINT mixamorig:LeftHandRing1
								{
									OFFSET 9.104523 -0.042999 -1.865074
									CHANNELS 6 Xposition Yposition Zposition Xrotation Yrotation Zrotation
									JOINT mixamorig:LeftHandRing2
									{
										OFFSET 3.150009 -0.000031 0.000043
										CHANNELS 6 Xposition Yposition Zposition Xrotation Yrotation Zrotation
										JOINT mixamorig:LeftHandRing3
										{
											OFFSET 2.949982 -0.000015 0.000040
											CHANNELS 6 Xposition Yposition Zposition Xrotation Yrotation Zrotation
											JOINT mixamorig:LeftHandRing4
											{
												OFFSET 2.644348 0.000000 0.000057
												CHANNELS 6 Xposition Yposition Zposition Xrotation Yrotation Zrotation
												End Site
												{
													OFFSET 264.434631 0.000000 0.012105
												}
											}
										}
									}
								}
								JOINT mixamorig:LeftHandPinky1
								{
									OFFSET 8.077789 -0.486847 -3.806259
									CHANNELS 6 Xposition Yposition Zposition Xrotation Yrotation Zrotation
									JOINT mixamorig:LeftHandPinky2
									{
										OFFSET 3.599953 0.000031 0.014727
										CHANNELS 6 Xposition Yposition Zposition Xrotation Yrotation Zrotation
										JOINT mixamorig:LeftHandPinky3
										{
											OFFSET 2.100021 0.000015 0.007705
											CHANNELS 6 Xposition Yposition Zposition Xrotation Yrotation Zrotation
											JOINT mixamorig:LeftHandPinky4
											{
												OFFSET 2.125504 0.000031 0.007517
												CHANNELS 6 Xposition Yposition Zposition Xrotation Yrotation Zrotation
												End Site
												{
													OFFSET 212.550781 0.000000 0.625752
												}
											}
										}
									}
								}
							}
						}
					}
				}
			}
		}
	}
	JOINT mixamorig:RightUpLeg
	{
		OFFSET -8.207787 -6.751648 -1.599560
		CHANNELS 6 Xposition Yposition Zposition Xrotation Yrotation Zrotation
		JOINT mixamorig:RightLeg
		{
			OFFSET -0.000002 -44.370117 0.345942
			CHANNELS 6 Xposition Yposition Zposition Xrotation Yrotation Zrotation
			JOINT mixamorig:RightFoot
			{
				OFFSET 0.000003 -44.423679 -3.043532
				CHANNELS 6 Xposition Yposition Zposition Xrotation Yrotation Zrotation
				JOINT mixamorig:RightToeBase
				{
					OFFSET -0.000002 -8.728671 10.710558
					CHANNELS 6 Xposition Yposition Zposition Xrotation Yrotation Zrotation
					JOINT mixamorig:RightToe_End
					{
						OFFSET -0.000001 -0.000679 9.278119
						CHANNELS 6 Xposition Yposition Zposition Xrotation Yrotation Zrotation
						End Site
						{
							OFFSET 0.000000 -0.067690 927.812134
						}
					}
				}
			}
		}
	}
	JOINT mixamorig:LeftUpLeg
	{
		OFFSET 8.207793 -6.751686 -1.599556
		CHANNELS 6 Xposition Yposition Zposition Xrotation Yrotation Zrotation
		JOINT mixamorig:LeftLeg
		{
			OFFSET -0.000004 -44.370014 0.346954
			CHANNELS 6 Xposition Yposition Zposition Xrotation Yrotation Zrotation
			JOINT mixamorig:LeftFoot
			{
				OFFSET -0.000001 -44.423672 -3.044401
				CHANNELS 6 Xposition Yposition Zposition Xrotation Yrotation Zrotation
				JOINT mixamorig:LeftToeBase
				{
					OFFSET -0.000002 -8.728669 10.710558
					CHANNELS 6 Xposition Yposition Zposition Xrotation Yrotation Zrotation
					JOINT mixamorig:LeftToe_End
					{
						OFFSET -0.000003 -0.000679 9.278133
						CHANNELS 6 Xposition Yposition Zposition Xrotation Yrotation Zrotation
						End Site
						{
							OFFSET 0.000000 -0.068021 927.813477
						}
					}
				}
			}
		}
	}
}
MOTION
Frames: 3
Frame Time: 0.033333
0.000006 104.270477 1.554256 0.000010 0.000003 -0.000113 -0.000005 10.181587 0.131522 0.000001 -0.000003 0.000084 -0.000000 9.893967 -1.470711 0.000001 0.000000 -0.000000 -0.000000 9.220802 -1.370642 0.000000 -0.000000 -0.000000 0.000001 16.740433 -2.049030 0.000000 -0.000000 -0.000000 0.000000 9.617859 1.685014 0.000000 0.000000 0.000000 0.000002 22.037384 7.501101 0.000000 -0.000000 0.000000 -4.569968 11.014880 -2.160881 0.000008 0.000001 -0.000038 -10.592859 -0.524664 -2.232048 72.549573 3.465280 -2.543521 -27.841543 0.000020 0.000526 -59.671231 117.550465 86.826341 -28.328836 0.000021 0.000024 -0.000324 -0.000044 0.000007 -2.464405 -1.573778 2.682337 -45.494473 -165.490784 -3.362196 -3.215283 -1.872588 1.924661 156.035371 32.026497 5.180884 -2.654945 -1.527912 1.513086 148.409000 26.238815 -40.848991 -2.018819 -1.151987 1.108060 -0.000004 0.000001 0.000002 -9.108376 -0.517537 2.260109 96.610615 16.809818 -18.887944 -3.700097 0.000305 0.001491 92.433401 15.302274 -15.932921 -2.850094 0.000365 -0.000272 91.403893 11.942036 -12.235110 -2.772197 -0.000001 -0.000022 0.000002 0.000001 -0.000002 -9.532578 0.000270 0.000229 94.696051 15.041367 -16.463659 -3.700095 0.000329 0.003971 94.361843 12.570864 -13.454753 -2.950069 0.000329 -0.001801 95.125656 11.540577 -12.605990 -2.946625 0.000001 -0.000146 -0.000002 -0.000001 0.000000 -9.103668 -0.042753 -1.864877 93.958439 15.533570 -16.583542 -3.379327 0.000312 -0.000799 95.884019 9.089706 -10.088872 -2.889740 0.000365 0.000646 98.385433 6.776977 -7.898680 -2.638834 0.000004 0.000942 0.000002 0.000002 0.000001 -8.076721 -0.486373 -3.806025 87.688455 16.558325 -15.767811 -3.600034 0.000306 -0.003514 91.720008 6.861678 -6.712254 -2.099995 0.000352 -0.005495 93.060153 3.683614 -3.660855 -2.115771 -0.000042 -0.003682 -0.000000 -0.000001 -0.000005 4.570446 11.014691 -2.160851 -0.000018 0.000010 -0.000021 10.592359 -0.524540 -2.232272 68.699887 10.496455 -7.184251 27.841839 0.000147 -0.000213 102.851468 -59.072175 70.782227 28.328840 -0.000029 0.000029 0.000020 -0.000088 -0.000000 2.466070 -1.576180 2.681890 -23.968843 154.558957 -38.666193 3.217760 -1.871700 1.916372 158.394259 -33.031222 -8.707073 2.656096 -1.528639 1.514451 142.435809 -27.073422 47.358565 2.020899 -1.154064 1.115154 -0.000002 0.000001 0.000002 9.109367 -0.517865 2.259728 85.085408 -16.082217 14.762554 3.700050 0.000166 -0.000450 84.207558 -14.454439 13.090573 2.850054 0.000212 0.000196 83.149562 -12.859229 11.415875 2.774890 -0.000025 -0.000026 -0.000000 -0.000001 -0.000001 9.533450 0.000207 -0.000098 87.112178 -14.508647 13.793951 3.700061 0.000153 -0.000375 88.284238 -13.332802 12.940160 2.950063 0.000173 -0.000181 89.228690 -16.582157 16.366450 2.952866 -0.000014 0.000065 0.000002 0.000005 0.000003 9.104571 -0.042838 -1.865240 86.127572 -13.974393 13.070415 3.150052 0.000213 -0.000101 91.092642 -12.986319 13.236033 2.950030 0.000201 -0.000048 93.013427 -14.680708 15.466425 2.644330 0.000016 0.000061 0.000001 -0.000003 -0.000002 8.077826 -0.486735 -3.806403 73.352359 -16.349998 12.656844 3.600003 0.000168 0.014560 76.374759 -13.777586 11.263516 2.100045 0.000175 0.007544 79.806505 -12.787867 11.115859 2.125503 -0.000013 0.007517 0.000001 0.000004 0.000000 -8.207786 -6.751667 -1.599560 -0.077001 -0.000003 0.000080 -0.000002 -44.370110 0.345938 0.153719 -0.000000 -0.000000 0.000000 -44.423679 -3.043532 -0.076700 0.000000 -0.000002 -0.000006 -8.728667 10.710559 -0.000009 -0.000000 -0.000000 -0.000001 -0.000679 9.278123 0.000000 -0.000000 -0.000000 8.207792 -6.751710 -1.599556 -0.074518 -0.000003 0.000081 -0.000002 -44.370014 0.346960 0.148822 0.000002 0.000000 -0.000001 -44.423664 -3.044403 -0.074314 0.000000 -0.000002 -0.000004 -8.728671 10.710558 0.000007 -0.000000 -0.000000 0.000000 -0.000680 9.278137 -0.000000 0.000000 -0.000001 
0.000006 104.270477 1.554256 0.000010 0.000003 -0.000113 -0.000005 10.181587 0.131522 0.000001 -0.000003 0.000084 -0.000000 9.893967 -1.470711 0.000001 0.000000 -0.000000 -0.000000 9.220802 -1.370642 0.000000 -0.000000 -0.000000 0.000001 16.740433 -2.049030 0.000000 -0.000000 -0.000000 0.000000 9.617859 1.685014 0.000000 0.000000 0.000000 0.000002 22.037384 7.501101 0.000000 -0.000000 0.000000 -4.569968 11.014880 -2.160881 0.000008 0.000001 -0.000038 -10.592871 -0.524686 -2.232008 72.694086 9.122457 -6.719167 -27.841532 0.000020 0.000520 -58.541176 117.514498 85.471949 -28.328827 0.000020 0.000022 -0.000320 -0.000046 0.000006 -2.464454 -1.573674 2.682284 -53.905895 -173.993250 -28.800613 -3.215292 -1.872591 1.924647 153.556395 31.679312 5.153160 -2.654956 -1.527897 1.513086 147.223293 26.893243 -36.985136 -2.018822 -1.151999 1.108075 -0.000000 0.000000 -0.000000 -9.108385 -0.517571 2.260124 97.159578 17.601338 -19.959630 -3.700061 0.000297 0.001522 93.440874 16.393759 -17.368184 -2.850104 0.000381 -0.000270 92.565579 12.823712 -13.404971 -2.772159 -0.000016 -0.000028 0.000002 0.000001 -0.000002 -9.532603 0.000258 0.000254 94.835401 17.453760 -19.122206 -3.700080 0.000314 0.003978 94.809036 13.870385 -14.968132 -2.950080 0.000325 -0.001798 97.286339 11.920718 -13.519729 -2.946629 0.000001 -0.000158 -0.000002 0.000000 -0.000001 -9.103700 -0.042760 -1.864856 93.026090 17.563179 -18.452963 -3.379328 0.000325 -0.000822 94.172367 9.207836 -9.919211 -2.889752 0.000360 0.000647 100.283166 6.146555 -7.412958 -2.638815 -0.000001 0.000943 0.000003 -0.000001 -0.000001 -8.076757 -0.486407 -3.806045 86.639693 17.906842 -16.757970 -3.600044 0.000286 -0.003527 90.780850 7.127523 -6.871517 -2.100003 0.000328 -0.005476 94.422844 3.095059 -3.115425 -2.115761 -0.000054 -0.003685 0.000000 0.000003 -0.000003 4.570446 11.014691 -2.160851 -0.000018 0.000010 -0.000021 10.592353 -0.524557 -2.232257 69.257941 18.120471 -12.568668 27.841835 0.000115 -0.000213 102.911922 -62.397808 74.479832 28.328840 -0.000044 0.000025 0.000020 -0.000089 -0.000001 2.466172 -1.576148 2.681887 -11.193788 159.302046 -65.260484 3.217817 -1.871756 1.916375 163.976982 -29.016672 12.238757 2.656119 -1.528695 1.514482 142.199211 -26.722497 54.037298 2.020891 -1.154065 1.115129 0.000001 0.000001 0.000002 9.109373 -0.517858 2.259737 85.867021 -17.650066 16.426381 3.700042 0.000160 -0.000467 82.636437 -11.877050 10.464161 2.850062 0.000175 0.000223 81.782295 -9.431576 8.170855 2.774871 -0.000031 -0.000029 -0.000000 0.000001 0.000000 9.533440 0.000207 -0.000075 85.889895 -16.349837 15.222610 3.700045 0.000187 -0.000387 88.744088 -10.219363 9.996350 2.950049 0.000178 -0.000199 90.461020 -10.896331 10.986729 2.952863 -0.000018 0.000067 -0.000001 -0.000001 -0.000002 9.104584 -0.042849 -1.865207 85.641679 -16.314318 15.134470 3.150041 0.000219 -0.000105 92.119642 -11.504024 11.936477 2.950025 0.000215 -0.000085 94.306608 -10.496607 11.313523 2.644330 0.000048 0.000064 -0.000000 -0.000000 0.000001 8.077841 -0.486728 -3.806382 76.789986 -18.260722 14.995327 3.600013 0.000181 0.014560 78.159467 -15.540222 13.073722 2.100034 0.000184 0.007557 80.459601 -11.639171 10.263765 2.125506 -0.000017 0.007515 -0.000002 0.000000 0.000002 -8.207786 -6.751667 -1.599560 -0.077001 -0.000003 0.000080 -0.000002 -44.370110 0.345938 0.153719 -0.000000 -0.000000 0.000000 -44.423679 -3.043532 -0.076700 0.000000 -0.000002 -0.000006 -8.728667 10.710559 -0.000009 -0.000000 -0.000000 -0.000001 -0.000679 9.278123 0.000000 -0.000000 -0.000000 8.207792 -6.751710 -1.599556 -0.074518 -0.000003 0.000081 -0.000002 -44.370014 0.346960 0.148822 0.000002 0.000000 -0.000001 -44.423664 -3.044403 -0.074314 0.000000 -0.000002 -0.000004 -8.728671 10.710558 0.000007 -0.000000 -0.000000 0.000000 -0.000680 9.278137 -0.000000 0.000000 -0.000001 
0.000006 104.270477 1.554256 0.000010 0.000003 -0.000113 -0.000005 10.181587 0.131522 0.000001 -0.000003 0.000084 -0.000000 9.893967 -1.470711 0.000001 0.000000 -0.000000 -0.000000 9.220802 -1.370642 0.000000 -0.000000 -0.000000 0.000001 16.740433 -2.049030 0.000000 -0.000000 -0.000000 0.000000 9.617859 1.685014 0.000000 0.000000 0.000000 0.000002 22.037384 7.501101 0.000000 -0.000000 0.000000 -4.569968 11.014880 -2.160881 0.000008 0.000001 -0.000038 -10.592877 -0.524701 -2.231974 72.509295 13.775853 -10.125125 -27.841528 0.000018 0.000541 -57.862030 115.283744 82.201620 -28.328821 0.000006 0.000027 -0.000319 -0.000045 0.000007 -2.464448 -1.573710 2.682297 -53.447962 -172.891813 -26.923050 -3.215261 -1.872566 1.924649 153.999701 31.856795 5.887240 -2.654946 -1.527884 1.513083 147.978043 26.699881 -37.405579 -2.018822 -1.152006 1.108073 0.000001 -0.000003 0.000000 -9.108386 -0.517570 2.260119 96.917659 17.833959 -20.137532 -3.700079 0.000298 0.001523 93.573592 16.690860 -17.723209 -2.850107 0.000358 -0.000271 93.143741 13.167677 -13.902662 -2.772158 -0.000001 -0.000012 -0.000002 0.000000 0.000001 -9.532618 0.000257 0.000251 95.068215 18.147200 -19.954015 -3.700072 0.000314 0.003971 94.964218 14.434355 -15.621133 -2.950071 0.000317 -0.001797 97.804996 12.386177 -14.174295 -2.946625 0.000002 -0.000152 0.000003 -0.000000 0.000000 -9.103706 -0.042774 -1.864858 93.257163 18.478689 -19.492207 -3.379348 0.000307 -0.000810 93.762993 9.821395 -10.503526 -2.889756 0.000343 0.000667 100.293828 6.494460 -7.830837 -2.638798 -0.000016 0.000941 -0.000003 -0.000001 0.000002 -8.076754 -0.486396 -3.806030 87.112137 18.658646 -17.610548 -3.600012 0.000286 -0.003505 90.460207 7.880579 -7.588763 -2.100022 0.000332 -0.005475 94.360785 3.574021 -3.627159 -2.115777 -0.000054 -0.003682 -0.000001 0.000000 -0.000006 4.570446 11.014691 -2.160851 -0.000018 0.000010 -0.000021 10.592360 -0.524546 -2.232266 69.133365 12.437608 -8.587102 27.841831 0.000104 -0.000213 102.909067 -64.587908 76.848173 28.328838 -0.000030 0.000019 0.000020 -0.000090 0.000001 2.466202 -1.576110 2.681864 -4.922083 161.800870 -77.488202 3.217850 -1.871763 1.916390 164.745884 -27.278876 19.257341 2.656119 -1.528649 1.514475 143.838019 -26.193883 53.603065 2.020891 -1.154084 1.115147 0.000001 0.000007 0.000002 9.109385 -0.517859 2.259748 89.453109 -19.554371 19.359485 3.700052 0.000156 -0.000469 85.978578 -13.641231 12.739645 2.850051 0.000201 0.000202 84.926360 -10.624159 9.726049 2.774884 -0.000026 -0.000027 -0.000002 -0.000001 0.000001 9.533470 0.000215 -0.000084 88.203690 -18.375765 17.808958 3.700046 0.000191 -0.000375 90.420701 -11.153130 11.232145 2.950045 0.000213 -0.000200 91.852644 -10.826158 11.182755 2.952871 -0.000048 0.000060 0.000001 0.000000 0.000001 9.104600 -0.042855 -1.865202 86.908823 -17.831355 16.910172 3.150060 0.000197 -0.000081 92.597831 -11.807433 12.353055 2.950016 0.000203 -0.000083 94.492136 -9.862568 10.665185 2.644331 0.000035 0.000053 0.000002 -0.000002 -0.000002 8.077856 -0.486727 -3.806385 78.067983 -19.240826 16.143920 3.599999 0.000167 0.014555 79.725076 -15.794999 13.654166 2.100037 0.000187 0.007540 82.060700 -11.167988 10.142783 2.125505 -0.000010 0.007513 -0.000002 0.000004 -0.000001 -8.207786 -6.751667 -1.599560 -0.077001 -0.000003 0.000080 -0.000002 -44.370110 0.345938 0.153719 -0.000000 -0.000000 0.000000 -44.423679 -3.043532 -0.076700 0.000000 -0.000002 -0.000006 -8.728667 10.710559 -0.000009 -0.000000 -0.000000 -0.000001 -0.000679 9.278123 0.000000 -0.000000 -0.000000 8.207792 -6.751710 -1.599556 -0.074518 -0.000003 0.000081 -0.000002 -44.370014 0.346960 0.148822 0.000002 0.000000 -0.000001 -44.423664 -3.044403 -0.074314 0.000000 -0.000002 -0.000004 -8.728671 10.710558 0.000007 -0.000000 -0.000000 0.000000 -0.000680 9.278137 -0.000000 0.000000 -0.000001 
